<svg enable-background="new 0 0 76.166 68.959" height="68.959" viewBox="0 0 76.166 68.959" width="76.166" xmlns="http://www.w3.org/2000/svg"><path d="m71.914 46.042h-67.662c-2.338 0-4.252 1.913-4.252 4.252v3.454c0 2.338 1.914 4.252 4.252 4.252h.956v1.037c0 5.457 4.464 9.922 9.921 9.922h45.908c5.456 0 9.921-4.465 9.921-9.922v-1.037h.956c2.339 0 4.252-1.914 4.252-4.252v-3.454c0-2.339-1.913-4.252-4.252-4.252zm-3.956 12.995c0 3.815-3.104 6.922-6.921 6.922h-45.908c-3.816 0-6.921-3.104-6.921-6.922v-1.037h59.75zm5.208-5.289c0 .679-.573 1.252-1.252 1.252h-67.662c-.679 0-1.252-.573-1.252-1.252v-3.454c0-.679.573-1.252 1.252-1.252h67.662c.679 0 1.252.573 1.252 1.252z"/><path d="m16.162 37.856 5.473 4 5.477-4 5.479 4 5.478-4 5.479 4 5.478-4 5.479 4 5.48-4 5.489 4 6.368-4.644-1.768-2.424-4.6 3.356-5.489-4-5.48 4-5.479-4.001-5.478 4.001-5.479-4.001-5.478 4.001-5.479-4.001-5.476 4.001-5.473-4.002-5.477 4.002-4.593-3.355-1.77 2.422 6.363 4.645z"/><path d="m70.888 31.094c.041-.61.055-2.616.037-3-.683-15.618-15.121-28.094-32.842-28.094-17.72 0-32.159 12.476-32.842 28.094-.017.384-.004 2.389.039 3zm-32.805-28.094c16.031 0 29.15 11.154 29.842 25.094h-59.684c.692-13.94 13.81-25.094 29.842-25.094z"/><circle cx="38.083" cy="15.042" r="2"/><circle cx="30.083" cy="10.083" r="2"/><circle cx="46.083" cy="10.083" r="2"/></svg>